<?xml version="1.0" encoding="UTF-8"?>
<svg id="Layer_1" data-name="Layer 1" xmlns="http://www.w3.org/2000/svg" xmlns:xlink="http://www.w3.org/1999/xlink" viewBox="0 0 800 800">
  <defs>
    <style>
      .cls-1 {
        fill: url(#linear-gradient-2);
      }

      .cls-2 {
        fill: #fff;
      }

      .cls-3 {
        fill: url(#linear-gradient);
      }
    </style>
    <linearGradient id="linear-gradient" x1="85.83" y1="-154.27" x2="950.4" y2="710.29" gradientUnits="userSpaceOnUse">
      <stop offset="0" stop-color="#29abe2"/>
      <stop offset=".09" stop-color="#30b1e4"/>
      <stop offset=".23" stop-color="#43c2ea"/>
      <stop offset=".4" stop-color="#63ddf3"/>
      <stop offset=".56" stop-color="#8affff"/>
      <stop offset=".59" stop-color="#7df4fb"/>
      <stop offset=".71" stop-color="#59d4f0"/>
      <stop offset=".82" stop-color="#3ebde8"/>
      <stop offset=".91" stop-color="#2eafe3"/>
      <stop offset=".99" stop-color="#29abe2"/>
    </linearGradient>
    <linearGradient id="linear-gradient-2" x1="-126.15" y1="57.71" x2="738.42" y2="922.27" xlink:href="#linear-gradient"/>
  </defs>
  <g id="bluw">
    <path class="cls-3" d="M784.71,262.56c-1.12-9.95-2.95-19.68-5.44-29.15-1.48-5.64-3.2-11.2-5.14-16.66-2.97-8.33-6.45-16.41-10.43-24.19-3.81-7.48-8.07-14.7-12.73-21.62-9.44-13.99-20.56-26.77-33.08-38.01-2.98-2.69-6.05-5.28-9.19-7.8-11.3-9.04-23.57-16.9-36.63-23.41-12.42-6.19-25.55-11.17-39.24-14.75-2.17-.58-4.36-1.11-6.57-1.61-14.71-3.35-30.03-5.12-45.77-5.12h-.04c-14.27,0-28.21,1.47-41.66,4.25-1.39,.27-2.77,.58-4.15,.89-16.07,3.65-31.42,9.2-45.81,16.39-5.35,2.67-10.57,5.57-15.65,8.69-7.27,4.46-14.25,9.37-20.9,14.68-3.16,2.53-6.25,5.15-9.26,7.86-6.82,6.13-13.21,12.71-19.15,19.7-.09,.1-.17,.2-.26,.3-.81,.95-2.27,.93-3.06-.04-7.11-8.65-14.93-16.7-23.36-24.06-1.45-1.28-2.92-2.53-4.41-3.76-12.62-10.44-26.51-19.4-41.39-26.61-14.41-6.99-29.76-12.34-45.81-15.81-6.78-1.47-13.68-2.6-20.69-3.38-.08,0-.16-.01-.24-.01H16c-1.1,0-2,.88-2,1.98,0,0,0,.01,0,.02,0,15.87,4.04,30.8,11.18,43.81,1.67,3.08,3.53,6.05,5.55,8.88,11.13,15.74,27.14,27.81,45.81,34,3.55,1.19,7.2,2.15,10.92,2.89,.13,.03,.27,.04,.41,.04H238.99c2.6,0,5.2-.2,7.78-.54,.01,0,.02,0,.04,0,.34-.05,.69-.1,1.02-.13,1.04-.13,2.1-.25,3.15-.35,.4-.04,.79-.08,1.2-.11,.4-.03,.8-.07,1.21-.1,.17-.01,.35-.02,.51-.03,1.21-.09,2.42-.15,3.64-.2,.75-.03,1.49-.05,2.24-.07,.71-.01,1.41-.02,2.13-.02,6.39,0,12.67,.52,18.77,1.54,8.68,1.42,17.02,3.84,24.91,7.11,18.08,7.49,33.82,19.5,45.81,34.61,1.07,1.34,2.1,2.7,3.09,4.09,9.69,13.38,16.53,28.94,19.66,45.81,.55,2.94,.98,5.92,1.31,8.94,.01,.12,.01,.23,0,.35-.31,4.6-.47,9.23-.47,13.9,0,.4,0,.8,.01,1.21,.01,3.35,.11,6.69,.29,10,.21,3.84,.51,7.65,.94,11.43,1.74,15.89,5.28,31.23,10.44,45.81,2.98,8.45,6.51,16.66,10.54,24.56,3.73,7.35,7.89,14.44,12.46,21.25,3.34,4.99,6.89,9.82,10.66,14.48,6.9,8.6,14.5,16.64,22.7,24.01,2.79,2.52,5.65,4.96,8.59,7.32,11.46,9.24,23.93,17.28,37.22,23.91,14.39,7.19,29.74,12.73,45.81,16.39,14.36,3.27,29.3,5.06,44.65,5.13,.39,.01,.77,.01,1.16,.01h.04c15.73,0,31.05-1.77,45.77-5.12,10.36-2.36,20.42-5.49,30.12-9.35,5.34-2.12,10.58-4.47,15.69-7.01,13.32-6.64,25.82-14.69,37.31-23.95,1.4-1.13,2.79-2.28,4.16-3.45,1.47-1.25,2.91-2.51,4.35-3.81,12.68-11.4,23.92-24.35,33.44-38.56,1.53-2.28,3.02-4.6,4.46-6.95,2.83-4.59,5.46-9.31,7.92-14.12,4.07-7.96,7.61-16.22,10.62-24.74,3.06-8.66,5.56-17.58,7.44-26.74,1.28-6.26,2.29-12.62,3-19.07,.83-7.43,1.24-14.98,1.24-22.64s-.43-15.57-1.29-23.18Zm-92.29,45.82c-1.14,5.71-2.71,11.25-4.69,16.61-3.81,10.45-9.12,20.17-15.66,28.93v.26h-.2c-6.61,8.81-14.46,16.64-23.3,23.2-6.88,5.12-14.36,9.48-22.31,12.97-14,6.14-29.49,9.55-45.77,9.55h-.04c-.32,0-.63,0-.95-.01-15.95-.13-31.12-3.53-44.86-9.58-18.13-7.95-33.79-20.49-45.53-36.13h-.28v-.38c-9.85-13.23-16.9-28.66-20.26-45.43-.72-3.52-1.26-7.11-1.64-10.74v-.02c-.37-3.58-.58-7.21-.6-10.88-.01-.33-.01-.66-.01-.99,0-4.53,.26-9,.78-13.38h0c.38-3.33,.91-6.59,1.58-9.8,3.41-16.56,10.41-31.79,20.15-44.88v-.92h.7c11.69-15.4,27.19-27.73,45.11-35.59,2.16-.96,4.36-1.84,6.6-2.65,12.22-4.48,25.42-6.93,39.21-6.94h.04c16.28,0,31.76,3.4,45.77,9.55,7.69,3.37,14.94,7.56,21.63,12.46,8.94,6.55,16.89,14.35,23.57,23.17h.61v.8c.18,.25,.37,.5,.55,.76,9.5,12.94,16.32,27.96,19.68,44.24,1.54,7.48,2.36,15.23,2.36,23.18s-.77,15.32-2.25,22.64Z"/>
    <path class="cls-1" d="M602.86,720.67h-132.09l-183.25-183.25-27.75-27.75-18.06-18.06-3.96-3.96-4.21-4.21-13.86-13.86c-2.45-3.73-4.39-7.84-5.72-12.21-1.13-3.69-1.82-7.56-2.01-11.57-.04-.79-.07-1.6-.07-2.4,0-4.86,.73-9.56,2.08-13.97,2.1-6.9,5.73-13.15,10.48-18.33,4.24-4.63,9.38-8.43,15.15-11.1,2.78-1.29,5.71-2.33,8.74-3.07h.01c3.65-.9,7.46-1.37,11.38-1.37h.04c4.36,0,8.56,.59,12.58,1.7h.03c2.59,.71,5.09,1.62,7.48,2.74,1.74,.8,3.41,1.71,5.03,2.72l15.52,15.52,5.16,5.16,22.41,22.41,23,23,251.87,251.87Z"/>
  </g>
  <g id="white">
    <path class="cls-2" d="M784.71,262.56c-1.12-9.95-2.95-19.68-5.44-29.15-1.48-5.64-3.2-11.2-5.14-16.66-2.97-8.33-6.45-16.41-10.43-24.19-3.81-7.48-8.07-14.7-12.73-21.62-9.44-13.99-20.56-26.77-33.08-38.01-2.98-2.69-6.05-5.28-9.19-7.8-11.3-9.04-23.57-16.9-36.63-23.41-12.42-6.19-25.55-11.17-39.24-14.75-2.17-.58-4.36-1.11-6.57-1.61-14.71-3.35-30.03-5.12-45.77-5.12h-.04c-14.27,0-28.21,1.47-41.66,4.25-1.39,.27-2.77,.58-4.15,.89-16.07,3.65-31.42,9.2-45.81,16.39-5.35,2.67-10.57,5.57-15.65,8.69-7.27,4.46-14.25,9.37-20.9,14.68-3.16,2.53-6.25,5.15-9.26,7.86-6.82,6.13-13.21,12.71-19.15,19.7-.09,.1-.17,.2-.26,.3-.81,.95-2.27,.93-3.06-.04-7.11-8.65-14.93-16.7-23.36-24.06-1.45-1.28-2.92-2.53-4.41-3.76-12.62-10.44-26.51-19.4-41.39-26.61-14.41-6.99-29.76-12.34-45.81-15.81-6.78-1.47-13.68-2.6-20.69-3.38-.08,0-.16-.01-.24-.01H16c-1.1,0-2,.88-2,1.98,0,0,0,.01,0,.02,0,15.87,4.04,30.8,11.18,43.81,1.67,3.08,3.53,6.05,5.55,8.88,11.13,15.74,27.14,27.81,45.81,34,3.55,1.19,7.2,2.15,10.92,2.89,.13,.03,.27,.04,.41,.04H238.99c2.6,0,5.2-.2,7.78-.54,.01,0,.02,0,.04,0,.34-.05,.69-.1,1.02-.13,1.04-.13,2.1-.25,3.15-.35,.4-.04,.79-.08,1.2-.11,.4-.03,.8-.07,1.21-.1,.17-.01,.35-.02,.51-.03,1.21-.09,2.42-.15,3.64-.2,.75-.03,1.49-.05,2.24-.07,.71-.01,1.41-.02,2.13-.02,6.39,0,12.67,.52,18.77,1.54,8.68,1.42,17.02,3.84,24.91,7.11,18.08,7.49,33.82,19.5,45.81,34.61,1.07,1.34,2.1,2.7,3.09,4.09,9.69,13.38,16.53,28.94,19.66,45.81,.55,2.94,.98,5.92,1.31,8.94,.01,.12,.01,.23,0,.35-.31,4.6-.47,9.23-.47,13.9,0,.4,0,.8,.01,1.21,.01,3.35,.11,6.69,.29,10,.21,3.84,.51,7.65,.94,11.43,1.74,15.89,5.28,31.23,10.44,45.81,2.98,8.45,6.51,16.66,10.54,24.56,3.73,7.35,7.89,14.44,12.46,21.25,3.34,4.99,6.89,9.82,10.66,14.48,6.9,8.6,14.5,16.64,22.7,24.01,2.79,2.52,5.65,4.96,8.59,7.32,11.46,9.24,23.93,17.28,37.22,23.91,14.39,7.19,29.74,12.73,45.81,16.39,14.36,3.27,29.3,5.06,44.65,5.13,.39,.01,.77,.01,1.16,.01h.04c15.73,0,31.05-1.77,45.77-5.12,10.36-2.36,20.42-5.49,30.12-9.35,5.34-2.12,10.58-4.47,15.69-7.01,13.32-6.64,25.82-14.69,37.31-23.95,1.4-1.13,2.79-2.28,4.16-3.45,1.47-1.25,2.91-2.51,4.35-3.81,12.68-11.4,23.92-24.35,33.44-38.56,1.53-2.28,3.02-4.6,4.46-6.95,2.83-4.59,5.46-9.31,7.92-14.12,4.07-7.96,7.61-16.22,10.62-24.74,3.06-8.66,5.56-17.58,7.44-26.74,1.28-6.26,2.29-12.62,3-19.07,.83-7.43,1.24-14.98,1.24-22.64s-.43-15.57-1.29-23.18Zm-92.29,45.82c-1.14,5.71-2.71,11.25-4.69,16.61-3.81,10.45-9.12,20.17-15.66,28.93v.26h-.2c-6.61,8.81-14.46,16.64-23.3,23.2-6.88,5.12-14.36,9.48-22.31,12.97-14,6.14-29.49,9.55-45.77,9.55h-.04c-.32,0-.63,0-.95-.01-15.95-.13-31.12-3.53-44.86-9.58-18.13-7.95-33.79-20.49-45.53-36.13h-.28v-.38c-9.85-13.23-16.9-28.66-20.26-45.43-.72-3.52-1.26-7.11-1.64-10.74v-.02c-.37-3.58-.58-7.21-.6-10.88-.01-.33-.01-.66-.01-.99,0-4.53,.26-9,.78-13.38h0c.38-3.33,.91-6.59,1.58-9.8,3.41-16.56,10.41-31.79,20.15-44.88v-.92h.7c11.69-15.4,27.19-27.73,45.11-35.59,2.16-.96,4.36-1.84,6.6-2.65,12.22-4.48,25.42-6.93,39.21-6.94h.04c16.28,0,31.76,3.4,45.77,9.55,7.69,3.37,14.94,7.56,21.63,12.46,8.94,6.55,16.89,14.35,23.57,23.17h.61v.8c.18,.25,.37,.5,.55,.76,9.5,12.94,16.32,27.96,19.68,44.24,1.54,7.48,2.36,15.23,2.36,23.18s-.77,15.32-2.25,22.64Z"/>
    <path class="cls-2" d="M602.86,720.67h-132.09l-183.25-183.25-27.75-27.75-18.06-18.06-3.96-3.96-4.21-4.21-13.86-13.86c-2.45-3.73-4.39-7.84-5.72-12.21-1.13-3.69-1.82-7.56-2.01-11.57-.04-.79-.07-1.6-.07-2.4,0-4.86,.73-9.56,2.08-13.97,2.1-6.9,5.73-13.15,10.48-18.33,4.24-4.63,9.38-8.43,15.15-11.1,2.78-1.29,5.71-2.33,8.74-3.07h.01c3.65-.9,7.46-1.37,11.38-1.37h.04c4.36,0,8.56,.59,12.58,1.7h.03c2.59,.71,5.09,1.62,7.48,2.74,1.74,.8,3.41,1.71,5.03,2.72l15.52,15.52,5.16,5.16,22.41,22.41,23,23,251.87,251.87Z"/>
  </g>
  <g id="black">
    <path class="cls-2" d="M784.71,262.56c-1.12-9.95-2.95-19.68-5.44-29.15-1.48-5.64-3.2-11.2-5.14-16.66-2.97-8.33-6.45-16.41-10.43-24.19-3.81-7.48-8.07-14.7-12.73-21.62-9.44-13.99-20.56-26.77-33.08-38.01-2.98-2.69-6.05-5.28-9.19-7.8-11.3-9.04-23.57-16.9-36.63-23.41-12.42-6.19-25.55-11.17-39.24-14.75-2.17-.58-4.36-1.11-6.57-1.61-14.71-3.35-30.03-5.12-45.77-5.12h-.04c-14.27,0-28.21,1.47-41.66,4.25-1.39,.27-2.77,.58-4.15,.89-16.07,3.65-31.42,9.2-45.81,16.39-5.35,2.67-10.57,5.57-15.65,8.69-7.27,4.46-14.25,9.37-20.9,14.68-3.16,2.53-6.25,5.15-9.26,7.86-6.82,6.13-13.21,12.71-19.15,19.7-.09,.1-.17,.2-.26,.3-.81,.95-2.27,.93-3.06-.04-7.11-8.65-14.93-16.7-23.36-24.06-1.45-1.28-2.92-2.53-4.41-3.76-12.62-10.44-26.51-19.4-41.39-26.61-14.41-6.99-29.76-12.34-45.81-15.81-6.78-1.47-13.68-2.6-20.69-3.38-.08,0-.16-.01-.24-.01H16c-1.1,0-2,.88-2,1.98,0,0,0,.01,0,.02,0,15.87,4.04,30.8,11.18,43.81,1.67,3.08,3.53,6.05,5.55,8.88,11.13,15.74,27.14,27.81,45.81,34,3.55,1.19,7.2,2.15,10.92,2.89,.13,.03,.27,.04,.41,.04H238.99c2.6,0,5.2-.2,7.78-.54,.01,0,.02,0,.04,0,.34-.05,.69-.1,1.02-.13,1.04-.13,2.1-.25,3.15-.35,.4-.04,.79-.08,1.2-.11,.4-.03,.8-.07,1.21-.1,.17-.01,.35-.02,.51-.03,1.21-.09,2.42-.15,3.64-.2,.75-.03,1.49-.05,2.24-.07,.71-.01,1.41-.02,2.13-.02,6.39,0,12.67,.52,18.77,1.54,8.68,1.42,17.02,3.84,24.91,7.11,18.08,7.49,33.82,19.5,45.81,34.61,1.07,1.34,2.1,2.7,3.09,4.09,9.69,13.38,16.53,28.94,19.66,45.81,.55,2.94,.98,5.92,1.31,8.94,.01,.12,.01,.23,0,.35-.31,4.6-.47,9.23-.47,13.9,0,.4,0,.8,.01,1.21,.01,3.35,.11,6.69,.29,10,.21,3.84,.51,7.65,.94,11.43,1.74,15.89,5.28,31.23,10.44,45.81,2.98,8.45,6.51,16.66,10.54,24.56,3.73,7.35,7.89,14.44,12.46,21.25,3.34,4.99,6.89,9.82,10.66,14.48,6.9,8.6,14.5,16.64,22.7,24.01,2.79,2.52,5.65,4.96,8.59,7.32,11.46,9.24,23.93,17.28,37.22,23.91,14.39,7.19,29.74,12.73,45.81,16.39,14.36,3.27,29.3,5.06,44.65,5.13,.39,.01,.77,.01,1.16,.01h.04c15.73,0,31.05-1.77,45.77-5.12,10.36-2.36,20.42-5.49,30.12-9.35,5.34-2.12,10.58-4.47,15.69-7.01,13.32-6.64,25.82-14.69,37.31-23.95,1.4-1.13,2.79-2.28,4.16-3.45,1.47-1.25,2.91-2.51,4.35-3.81,12.68-11.4,23.92-24.35,33.44-38.56,1.53-2.28,3.02-4.6,4.46-6.95,2.83-4.59,5.46-9.31,7.92-14.12,4.07-7.96,7.61-16.22,10.62-24.74,3.06-8.66,5.56-17.58,7.44-26.74,1.28-6.26,2.29-12.62,3-19.07,.83-7.43,1.24-14.98,1.24-22.64s-.43-15.57-1.29-23.18Zm-92.29,45.82c-1.14,5.71-2.71,11.25-4.69,16.61-3.81,10.45-9.12,20.17-15.66,28.93v.26h-.2c-6.61,8.81-14.46,16.64-23.3,23.2-6.88,5.12-14.36,9.48-22.31,12.97-14,6.14-29.49,9.55-45.77,9.55h-.04c-.32,0-.63,0-.95-.01-15.95-.13-31.12-3.53-44.86-9.58-18.13-7.95-33.79-20.49-45.53-36.13h-.28v-.38c-9.85-13.23-16.9-28.66-20.26-45.43-.72-3.52-1.26-7.11-1.64-10.74v-.02c-.37-3.58-.58-7.21-.6-10.88-.01-.33-.01-.66-.01-.99,0-4.53,.26-9,.78-13.38h0c.38-3.33,.91-6.59,1.58-9.8,3.41-16.56,10.41-31.79,20.15-44.88v-.92h.7c11.69-15.4,27.19-27.73,45.11-35.59,2.16-.96,4.36-1.84,6.6-2.65,12.22-4.48,25.42-6.93,39.21-6.94h.04c16.28,0,31.76,3.4,45.77,9.55,7.69,3.37,14.94,7.56,21.63,12.46,8.94,6.55,16.89,14.35,23.57,23.17h.61v.8c.18,.25,.37,.5,.55,.76,9.5,12.94,16.32,27.96,19.68,44.24,1.54,7.48,2.36,15.23,2.36,23.18s-.77,15.32-2.25,22.64Z"/>
    <path class="cls-2" d="M602.86,720.67h-132.09l-183.25-183.25-27.75-27.75-18.06-18.06-3.96-3.96-4.21-4.21-13.86-13.86c-2.45-3.73-4.39-7.84-5.72-12.21-1.13-3.69-1.82-7.56-2.01-11.57-.04-.79-.07-1.6-.07-2.4,0-4.86,.73-9.56,2.08-13.97,2.1-6.9,5.73-13.15,10.48-18.33,4.24-4.63,9.38-8.43,15.15-11.1,2.78-1.29,5.71-2.33,8.74-3.07h.01c3.65-.9,7.46-1.37,11.38-1.37h.04c4.36,0,8.56,.59,12.58,1.7h.03c2.59,.71,5.09,1.62,7.48,2.74,1.74,.8,3.41,1.71,5.03,2.72l15.52,15.52,5.16,5.16,22.41,22.41,23,23,251.87,251.87Z"/>
  </g>
</svg>